# xmcd
#
# Track frame offsets: 
#        150
#        12046
#        24657
#        35953
#        47255
#        58679
#        69989
#        80250
#        92848
#        103819
#        114071
#        125747
#        139643
#        154562
#        169036
#        182682
#
# Disc length: 2576 seconds
#
# Revision: 0
# Processed by: cddbd v1.5.2PL0 Copyright (c) Steve Scherf et al.
# Submitted via: ExactAudioCopy v1.0b6
#
DISCID=c60a0e10
DTITLE=Ray Charles - The Genius Sings the Blues
DYEAR=1900
DGENRE=Blues
TTITLE0=St. Pete Blues
TTITLE1=Rockin' Chair Blues
TTITLE2=Way Uptown
TTITLE3=Hear I Am Lone Again
TTITLE4=Swing Low, Sweet Sax
TTITLE5=Sentimental Blues
TTITLE6=Number Please
TTITLE7=I've Had My Fun
TTITLE8=Twistin' Tessie
TTITLE9=Turnpike Alley
TTITLE10=See See Rider
TTITLE11=Misery In My Heart
TTITLE12=Someday (You'll Want Me To Want You)
TTITLE13=Losing Hand
TTITLE14=A Fool For You
TTITLE15=Blackjack
EXTD=
EXTT0=
EXTT1=
EXTT2=
EXTT3=
EXTT4=
EXTT5=
EXTT6=
EXTT7=
EXTT8=
EXTT9=
EXTT10=
EXTT11=
EXTT12=
EXTT13=
EXTT14=
EXTT15=
PLAYORDER=
